<?xml version="1.0" encoding="utf-8"?>
<!-- Generator: Adobe Illustrator 27.2.0, SVG Export Plug-In . SVG Version: 6.00 Build 0)  -->
<svg version="1.1" id="Layer_1" xmlns:serif="http://www.serif.com/"
	 xmlns="http://www.w3.org/2000/svg" xmlns:xlink="http://www.w3.org/1999/xlink" x="0px" y="0px" viewBox="0 0 1000 1000"
	 style="enable-background:new 0 0 1000 1000;" xml:space="preserve">
<style type="text/css">
	.st0{fill-rule:evenodd;clip-rule:evenodd;fill:#000310;}
	.st1{opacity:0;}
	.st2{fill:#FFFFFF;}
	.st3{fill-rule:evenodd;clip-rule:evenodd;}
	.st4{fill:#FF0000;}
	.st5{fill:#02FBEC;stroke:#2B0000;stroke-width:4.2698;stroke-linejoin:round;stroke-miterlimit:2;}
	.st6{fill-rule:evenodd;clip-rule:evenodd;fill:#01FBEC;}
	.st7{fill:#02FBEC;stroke:#2B0000;stroke-width:39.9157;stroke-linejoin:round;stroke-miterlimit:2;}
</style>
<g>
	<g transform="matrix(1.02224,0,0,1.02224,-1705.75,-303.897)">
		<g>
			<g>
				<polyline class="st0" points="1402.9,904.2 1256.2,819.4 1109.5,904.2 1109.5,990.4 1256.2,1075.1 1402.9,990.4 1402.9,904.2 
									"/>
			</g>
			<g class="st1">
				<path d="M1256.2,1075.8c-0.1,0-0.3,0-0.4-0.1L1109.1,991c-0.2-0.1-0.4-0.4-0.4-0.6v-86.2c0-0.3,0.1-0.5,0.4-0.6l146.7-84.7
					c0.2-0.1,0.5-0.1,0.7,0l146.7,84.7c0.2,0.1,0.4,0.4,0.4,0.6v86.2c0,0.3-0.1,0.5-0.4,0.6l-146.7,84.7
					C1256.5,1075.8,1256.3,1075.8,1256.2,1075.8z M1110.2,990l146,84.3l146-84.3v-85.4l-146-84.3l-146,84.3V990z"/>
			</g>
		</g>
	</g>
	<g transform="matrix(0.607559,-0.350774,0.756318,0.43666,-443.492,272.65)">
		<path class="st2" d="M-530,366.5h13.9v-35.9h-64.6v35.9h14.8v35.8h35.8V366.5z M-433,330.4v71.7h59.4v-24.2h-14.8v-3.1h14.8v-17.2
			h-14.8v-3.1h14.8v-24.2H-433z M-510.8,330.4v71.7h34.3v-26.4h3.1v26.4h34.3v-71.7h-34.3v26.4h-3.1l0-26.4H-510.8z"/>
		<path class="st3" d="M-530,366.5h13.9v-35.9h-64.6v35.9h14.8v35.8h35.8V366.5z M-528.7,364.5c-0.8,0-1.7,0.4-2.5,1
			c-0.8,0.6-1.3,1.4-1.3,2v32.8h-30.8v-34.8c0-0.6-0.5-1-1.3-1h-13.6v-31.9h59.6v31.9H-528.7z M-510.8,330.4v71.7h34.3v-26.4h3.1
			v26.4h34.3v-71.7h-34.3v26.4h-3.1l0-26.4H-510.8z M-508.3,332.5h29.3v25.4c0,0.6,0.5,1,1.3,1h3.1c0.8,0,1.7-0.4,2.5-1
			c0.8-0.6,1.3-1.4,1.3-2v-23.4h29.3v67.6H-471v-25.4c0-0.6-0.5-1-1.3-1h-3.1c-0.8,0-1.7,0.4-2.5,1c-0.8,0.6-1.3,1.4-1.3,2v23.4
			h-29.3V332.5z M-433,330.4v71.7h59.4v-24.2h-14.8v-3.1h14.8v-17.2h-14.8v-3.1h14.8v-24.2H-433z M-430.5,332.5h54.4v20.1h-11.1
			c-0.8,0-1.7,0.4-2.5,1c-0.8,0.6-1.3,1.4-1.3,2v3.1c0,0.6,0.5,1,1.3,1h13.6v13.2h-11.1c-0.8,0-1.7,0.4-2.5,1
			c-0.8,0.6-1.3,1.4-1.3,2v3.1c0,0.6,0.5,1,1.3,1h13.6v20.1h-54.4V332.5L-430.5,332.5z"/>
	</g>
	<g transform="matrix(0.580834,-0.335345,0.866025,0.5,-519.387,215.682)">
		<path class="st4" d="M-443.6,464.7c-21.1,0-38.2,17.1-38.2,38.2c0,21.1,17.1,38.2,38.2,38.2c21.1,0,38.2-17.1,38.2-38.2
			C-405.4,481.8-422.5,464.7-443.6,464.7z M-591.1,538.9c19.8,0,35.8-16.1,35.8-35.8c0-19.8-16.1-35.9-35.8-35.9l-35.8,0
			c0,73.3,0-1.5,0,71.8H-591.1z M-564.8,538.8h90.5l-45.2-76.7L-564.8,538.8z"/>
	</g>
	<g transform="matrix(0.796836,-0.460054,5.31171e-17,0.911353,-1066.32,554.86)">
		<path class="st5" d="M891,586.2h-34.3c0,55.3,0-7.8,0,71.7h34.6v-13.6c16,0,29-13.1,29-29C920.3,599.1,907.1,586.2,891,586.2z
			 M856.8,657.8h-45.2v-76.7L856.8,657.8z M924.6,586.1v71.7H984v-24.2h-14.8v-3.1H984v-17.2h-14.8v-3.1H984v-24.2H924.6z"/>
	</g>
	<g transform="matrix(0.75686,0.436973,-5.28006e-17,0.889982,-1001.08,-1071.42)">
		<path class="st6" d="M764.1,1706.3v-76.7l-45.2,76.7H764.1z M759.9,1702.1H725l34.9-59.1V1702.1L759.9,1702.1z M668,1643.7
			c-14.7,14.7-14.7,38.6,0,53.3c14.7,14.7,38.6,14.7,53.3,0l-26.7-26.7l26.7-26.6C706.6,1629,682.7,1629,668,1643.7z M670.2,1645.7
			c4.8-4.8,10.9-7.6,17.2-8.5c9.9-1.5,20.1,1.3,28.2,8.1l-23.1,23c-2,2-2.7,4.5-1.5,5.6l24.4,24.4c-4,2.8-8.6,4.5-13.3,5.3
			c-10.8,1.7-22-1.8-30.3-10.1c-8.3-8.3-11.8-19.6-10.1-30.4C662.5,1656.7,665.3,1650.6,670.2,1645.7z M600.3,1634.6
			c-9.8,0-17.8,8.6-17.8,17.8c0,9.3,6.2,15.6,16.3,17.5v0.7h-14.4v35.7h53.3c20.7,0,24.5-30.4,3.9-35v-0.7h12.5v-36H600.3z
			 M598.2,1638.8h51.6v27.7h-6.1c-1.3,0-2.9,0.8-4.2,2.1c-1.3,1.3-2.1,2.9-2.1,4.2v0.7c0,1.1,0.6,1.8,1.5,2c9.1,2,12.9,9.6,12,16.8
			c-0.3,2.7-1.2,5.3-3.1,7.2c-1.9,1.9-4.6,2.7-8,2.7h-51.2v-27.4h8.1c1.3,0,2.9-0.8,4.2-2.1c1.3-1.3,2.1-2.9,2.1-4.2v-0.7
			c0-1.1-0.6-1.8-1.6-2c-9-1.7-14.7-7.2-14.7-15.5c0-3.1,1.1-6.1,3.2-8.3C592.1,1639.8,595,1638.8,598.2,1638.8z"/>
	</g>
	<g>
		<g>
			<polyline class="st0" points="0,684.2 500.8,973.4 1000,685.2 518.7,26.6 			"/>
		</g>
		<polygon class="st7" points="855.8,646.5 518.7,841.1 518.7,187.9 		"/>
		<polygon class="st6" points="490,841.6 490,203.7 169.8,656.8 		"/>
		<polygon class="st0" points="460.1,789.8 213.2,647.3 460.1,297.8 460.1,789.8 		"/>
	</g>
</g>
</svg>
