<?xml version="1.0" encoding="utf-8"?>
<!-- Generator: Adobe Illustrator 27.5.0, SVG Export Plug-In . SVG Version: 6.00 Build 0)  -->
<svg version="1.1" id="Layer_1" xmlns="http://www.w3.org/2000/svg" xmlns:xlink="http://www.w3.org/1999/xlink" x="0px" y="0px"
	 viewBox="0 0 34.6 34.6" style="enable-background:new 0 0 34.6 34.6;" xml:space="preserve">
<style type="text/css">
	.st0{fill-rule:evenodd;clip-rule:evenodd;fill:#FFFFFF;}
</style>
<g>
	<path class="st0" d="M1,14.5h4.2c0.4,0,0.7,0.3,0.7,0.7v12.8c0,0.4,0.3,0.7,0.7,0.7h12.8c0.4,0,0.7,0.3,0.7,0.7v4.3
		c0,0.4-0.3,0.7-0.7,0.7H1c-0.4,0-0.7-0.3-0.7-0.7V15.2C0.3,14.8,0.6,14.5,1,14.5z"/>
	<path class="st0" d="M8.1,6h18.4c0.4,0,0.7,0.3,0.7,0.7v18.4c0,0.4-0.3,0.7-0.7,0.7h-4.2c-0.4,0-0.7-0.3-0.7-0.7V12.3
		c0-0.4-0.3-0.7-0.7-0.7H8.1c-0.4,0-0.7-0.3-0.7-0.7V6.7C7.4,6.3,7.7,6,8.1,6z"/>
	<path class="st0" d="M29.3,0.3h4.3c0.4,0,0.7,0.3,0.7,0.7v4.2C34.3,5.6,34,6,33.6,6h-4.3c-0.4,0-0.7-0.3-0.7-0.7V1
		C28.6,0.6,29,0.3,29.3,0.3z"/>
</g>
</svg>
