<?xml version="1.0" encoding="utf-8"?>
<!-- Generator: Adobe Illustrator 27.5.0, SVG Export Plug-In . SVG Version: 6.00 Build 0)  -->
<svg version="1.1" id="Layer_1" xmlns="http://www.w3.org/2000/svg" xmlns:xlink="http://www.w3.org/1999/xlink" x="0px" y="0px"
	 viewBox="0 0 34.6 34.6" style="enable-background:new 0 0 34.6 34.6;" xml:space="preserve">
<style type="text/css">
	.st0{fill:#FFFFFF;}
</style>
<path class="st0" d="M22.9,1.2c-1.6-0.6-3.3-0.9-5-0.9c-0.2,0-0.4,0-0.6,0c-1.1,0-2.2,0.1-3.3,0.4c0,0,0,0-0.1,0c0,0,0,0,0.1,0
	c-4.6,1-8,4.3-9.7,9c-1.6,5-0.3,10.4,3.3,14.1c4.6,4.7,12.3,6,17.2,1.1c0,0,0,0,0,0c4.2-4.2,4.2-11,0-15.2C20.8,5.5,16,5.9,11.1,8.4
	l-0.3,0.2l0.3,7.8c0-0.1,0-0.1,0.1-0.2c0,0.1,0,0.1-0.1,0.2l0.2,4.7l0.2,0.1c1.3,1.2,2.7,1.7,3.9,1.9l-0.2-11.8c0,0-0.1,0-0.1,0.1
	c0,0,0.1,0,0.1-0.1c2.8-0.9,5.7-0.3,7.6,2.1c0,0,0,0,0,0c1.5,2.1,1.8,4.9,0.6,7.2c-2.6,4.9-9.9,4.6-13.4,1c-1.7-1.8-2.8-4.1-3.1-6.6
	c0,0,0,0,0,0c0,0,0,0,0,0C6.3,10.5,8.8,6,13.1,4l0.6-0.2c1.2-0.3,2.4-0.5,3.6-0.5c7.7,0,14,6.2,14,14c0,2.3-0.6,4.6-1.7,6.6
	c0,0,0,0.1-0.1,0.1c-0.6,1.2-1.4,2.2-2.4,3.1c-4.5,4.5-11.5,5.3-17.1,2.4C3.2,26,0.5,17.9,2.9,10.7c0.1-0.5-0.1-1-0.5-1.1L2.2,9.5
	L2,9.9c-0.2,0.5-0.5,1-0.7,1.6c-3.2,8.8,1.4,18.6,10.2,21.8c0.1,0,0.1,0,0.2,0.1c0.2,0,0.3,0.1,0.5,0.1c-0.2,0-0.3-0.1-0.5-0.1
	c8.9,3.1,18.6-1.6,21.7-10.4C36.4,14,31.8,4.3,22.9,1.2z"/>
</svg>
