<?xml version="1.0" encoding="utf-8"?>
<!-- Generator: Adobe Illustrator 27.5.0, SVG Export Plug-In . SVG Version: 6.00 Build 0)  -->
<svg version="1.1" id="Layer_1" xmlns="http://www.w3.org/2000/svg" xmlns:xlink="http://www.w3.org/1999/xlink" x="0px" y="0px"
	 viewBox="0 0 34.6 34.6" style="enable-background:new 0 0 34.6 34.6;" xml:space="preserve">
<style type="text/css">
	.st0{fill:#FFFFFF;}
</style>
<g>
	<path class="st0" d="M19.5,17.3c0,5.3-4.3,9.7-9.6,9.7s-9.6-4.3-9.6-9.7s4.3-9.7,9.6-9.7S19.5,12,19.5,17.3"/>
	<path class="st0" d="M30,17.3c0,5-2.1,9.1-4.8,9.1s-4.8-4.1-4.8-9.1s2.1-9.1,4.8-9.1S30,12.3,30,17.3"/>
	<path class="st0" d="M34.3,17.3c0,4.5-0.8,8.1-1.7,8.1c-0.9,0-1.7-3.6-1.7-8.1s0.8-8.1,1.7-8.1S34.3,12.8,34.3,17.3"/>
</g>
</svg>
