<?xml version="1.0" encoding="utf-8"?>
<!-- Generator: Adobe Illustrator 27.5.0, SVG Export Plug-In . SVG Version: 6.00 Build 0)  -->
<svg version="1.1" id="Layer_1" xmlns="http://www.w3.org/2000/svg" xmlns:xlink="http://www.w3.org/1999/xlink" x="0px" y="0px"
	 viewBox="0 0 34.6 34.6" style="enable-background:new 0 0 34.6 34.6;" xml:space="preserve">
<style type="text/css">
	.st0{fill:#FFFFFF;}
</style>
<path class="st0" d="M26.9,0.3H7.7c-4.1,0-7.4,3.3-7.4,7.4v19.3c0,4.1,3.3,7.4,7.4,7.4h19.3c4.1,0,7.4-3.3,7.4-7.4V7.7
	C34.3,3.6,31,0.3,26.9,0.3z M23.9,30.1h-3.7l3.1-19.4l-6.8,19.4h-3.7l3.4-18.2L9,30.1H5.3L9,13L5.3,4.5H9l7.2,6.7l-3.4-6.7h3.7
	l6.8,5.5l-3.1-5.5h3.7l6.8,4.2L23.9,30.1z"/>
</svg>
