<?xml version="1.0" encoding="utf-8"?>
<!-- Generator: Adobe Illustrator 27.5.0, SVG Export Plug-In . SVG Version: 6.00 Build 0)  -->
<svg version="1.1" id="Layer_1" xmlns="http://www.w3.org/2000/svg" xmlns:xlink="http://www.w3.org/1999/xlink" x="0px" y="0px"
	 viewBox="0 0 34.6 34.6" style="enable-background:new 0 0 34.6 34.6;" xml:space="preserve">
<style type="text/css">
	.st0{fill-rule:evenodd;clip-rule:evenodd;fill:#FFFFFF;}
</style>
<path class="st0" d="M21.9,0.4L3.1,1.8C1.6,1.9,1,2.9,1,4.1v20.6c0,0.9,0.3,1.7,1.1,2.8l4.4,5.8c0.7,0.9,1.4,1.1,2.8,1.1L31.2,33
	c1.8-0.1,2.4-1,2.4-2.4V7.3c0-0.8-0.3-1-1.2-1.6c-0.1,0-0.1-0.1-0.2-0.1l-6-4.2C24.8,0.3,24.2,0.2,21.9,0.4z M9.8,6.9
	C8.1,7.1,7.7,7.1,6.6,6.3l-2.6-2C3.8,3.9,3.9,3.6,4.6,3.6l18.1-1.3c1.5-0.1,2.3,0.4,2.9,0.9l3.1,2.2c0.1,0.1,0.5,0.5,0.1,0.5
	L10.1,6.9C10.1,6.9,9.8,6.9,9.8,6.9z M7.8,30.3V10.6c0-0.9,0.3-1.3,1.1-1.3L30.3,8C31,8,31.3,8.4,31.3,9.3v19.6
	c0,0.9-0.1,1.6-1.3,1.7L9.5,31.7C8.3,31.8,7.8,31.4,7.8,30.3z M28,11.7c0.1,0.6,0,1.2-0.6,1.3l-1,0.2v14.5c-0.9,0.5-1.7,0.7-2.3,0.7
	c-1.1,0-1.3-0.3-2.1-1.3l-6.5-10.2v9.8l2,0.5c0,0,0,1.2-1.7,1.2l-4.6,0.3c-0.1-0.3,0-0.9,0.5-1.1l1.2-0.3v-13l-1.7-0.1
	c-0.1-0.6,0.2-1.5,1.1-1.5l4.9-0.3l6.7,10.3v-9.1l-1.7-0.2c-0.1-0.7,0.4-1.3,1.1-1.3C23.5,11.9,28,11.7,28,11.7z"/>
</svg>
