<?xml version="1.0" encoding="utf-8"?>
<!-- Generator: Adobe Illustrator 27.5.0, SVG Export Plug-In . SVG Version: 6.00 Build 0)  -->
<svg version="1.1" id="Layer_1" xmlns="http://www.w3.org/2000/svg" xmlns:xlink="http://www.w3.org/1999/xlink" x="0px" y="0px"
	 viewBox="0 0 34.6 34.6" style="enable-background:new 0 0 34.6 34.6;" xml:space="preserve">
<style type="text/css">
	.st0{fill:#FFFFFF;}
</style>
<g>
	<path class="st0" d="M6.3,0.5c2.2,0,4.3,0,6.5,0c0,0.8,0,1.5,0,2.3c0,0,0.1,0,0.1,0c0.1-0.1,0.1-0.1,0.2-0.2
		c1.4-1.4,3.1-2.2,5.1-2.4c1.6-0.2,3.2-0.1,4.7,0.5c1.8,0.7,3.2,1.8,4.2,3.5c0.9,1.6,1.3,3.2,1.4,5c0,2,0,4,0.1,5.9
		c0,0.1,0,0.3,0,0.5c-1.1,0-2.1,0-3.3,0c0,2.2,0,4.3,0,6.4c-1.2,0-2.3,0-3.5,0c0-0.2,0-0.3,0-0.5c0-3.6,0-7.1,0-10.7
		c0-1-0.2-1.9-0.7-2.8c-0.8-1.2-1.9-1.8-3.3-1.9c-0.8-0.1-1.6,0-2.3,0.3C14,7.3,13.2,8.5,13,10c-0.1,0.5-0.1,0.9-0.1,1.4
		c0,3.3,0,6.7,0,10c0,0.2,0,0.3,0,0.5c-1.8,0-3.6,0-5.4,0c0,1.8,0,3.5,0,5.3c-0.5,0-0.8,0-1.2,0c0-2.4,0-4.9,0-7.4
		c0.9,0,1.8,0,2.7,0c0-1.4,0-2.7,0-4.1c-0.9,0-1.8,0-2.8,0C6.3,10.6,6.3,5.6,6.3,0.5z"/>
	<path class="st0" d="M8.1,34.4c-1.5,0-3,0-4.4,0c0-1.5,0-3,0-4.5c1.5,0,3,0,4.4,0C8.1,31.4,8.1,32.9,8.1,34.4z"/>
	<path class="st0" d="M27.5,20.2c1.4,0,2.7,0,4.1,0c0,1.4,0,2.7,0,4.1c-1.4,0-2.7,0-4.1,0C27.5,23,27.5,21.6,27.5,20.2z"/>
	<path class="st0" d="M14.6,27.4c-1.4,0-2.7,0-4.1,0c0-1.4,0-2.7,0-4.1c1.4,0,2.7,0,4.1,0C14.6,24.7,14.6,26.1,14.6,27.4z"/>
	<path class="st0" d="M24,28.3c-1.4,0-2.7,0-4.1,0c0-1.4,0-2.7,0-4.1c1.4,0,2.7,0,4.1,0C24,25.6,24,26.9,24,28.3z"/>
	<path class="st0" d="M25.4,27.9c1.4,0,2.7,0,4.1,0c0,1.4,0,2.7,0,4.1c-1.4,0-2.7,0-4.1,0C25.4,30.6,25.4,29.3,25.4,27.9z"/>
	<path class="st0" d="M1.8,25.7c1,0,2,0,3,0c0,1,0,2,0,3c-1,0-2,0-3,0C1.8,27.8,1.8,26.8,1.8,25.7z"/>
	<path class="st0" d="M32.8,26.2c0,0.7,0,1.4,0,2.1c-0.7,0-1.4,0-2.1,0c0-0.7,0-1.3,0-2.1C31.4,26.2,32,26.2,32.8,26.2z"/>
	<path class="st0" d="M28.5,18.8c-0.7,0-1.4,0-2.1,0c0-0.7,0-1.4,0-2.1c0.7,0,1.4,0,2.1,0C28.5,17.4,28.5,18.1,28.5,18.8z"/>
	<path class="st0" d="M4.7,20.9c-0.7,0-1.4,0-2.1,0c0-0.7,0-1.3,0-2c0.7,0,1.4,0,2.1,0C4.7,19.5,4.7,20.2,4.7,20.9z"/>
	<path class="st0" d="M15.3,21.2c0.7,0,1.3,0,2,0c0,0.7,0,1.4,0,2.1c-0.7,0-1.3,0-2,0C15.3,22.6,15.3,22,15.3,21.2z"/>
	<path class="st0" d="M9.4,28.9c0.7,0,1.4,0,2.1,0c0,0.7,0,1.3,0,2c-0.7,0-1.4,0-2.1,0C9.4,30.2,9.4,29.6,9.4,28.9z"/>
</g>
</svg>
