<?xml version="1.0" encoding="utf-8"?>
<!-- Generator: Adobe Illustrator 27.5.0, SVG Export Plug-In . SVG Version: 6.00 Build 0)  -->
<svg version="1.1" id="Layer_1" xmlns="http://www.w3.org/2000/svg" xmlns:xlink="http://www.w3.org/1999/xlink" x="0px" y="0px"
	 viewBox="0 0 34.6 34.6" style="enable-background:new 0 0 34.6 34.6;" xml:space="preserve">
<style type="text/css">
	.st0{fill:#FFFFFF;}
</style>
<path class="st0" d="M27.7,4c-2.9-2.3-6.5-3.6-10.5-3.6C7.9,0.4,0.3,7.9,0.3,17.3c0,9.4,7.6,16.9,16.9,16.9c4,0,7.6-1.4,10.5-3.7
	c1.3-1,2.5-2.2,3.5-3.6C36.5,19.6,34.8,9.5,27.7,4z M7.8,17.3c0-5.2,4.2-9.4,9.4-9.4c2,0,3.9,0.6,5.5,1.7l0,0
	c0.9,0.6,1.7,1.4,2.3,2.3c0.2,0.2,0.3,0.5,0.4,0.7c0.8,1.4,1.2,3,1.2,4.7c0,1.8-0.5,3.4-1.3,4.8c-0.7,1.1-1.5,2-2.7,2.8l0,0
	c-1.5,1.1-3.4,1.7-5.5,1.7C12,26.7,7.8,22.5,7.8,17.3z"/>
</svg>
