<?xml version="1.0" encoding="utf-8"?>
<!-- Generator: Adobe Illustrator 27.5.0, SVG Export Plug-In . SVG Version: 6.00 Build 0)  -->
<svg version="1.1" id="Layer_1" xmlns="http://www.w3.org/2000/svg" xmlns:xlink="http://www.w3.org/1999/xlink" x="0px" y="0px"
	 viewBox="0 0 34.6 34.6" style="enable-background:new 0 0 34.6 34.6;" xml:space="preserve">
<style type="text/css">
	.st0{fill:#FFFFFF;}
</style>
<path class="st0" d="M30.2,0.3H4.4c-2.2,0-4,1.8-4,4v25.9c0,2.2,1.8,4,4,4h25.9c2.2,0,4-1.8,4-4V4.3C34.3,2.1,32.5,0.3,30.2,0.3z
	 M14.9,24.8c0,0.8-0.6,1.4-1.4,1.4H7.9c-0.8,0-1.4-0.6-1.4-1.4V7.9c0-0.8,0.6-1.4,1.4-1.4h5.7c0.8,0,1.4,0.6,1.4,1.4V24.8z M28,17
	c0,0.8-0.6,1.4-1.3,1.4H21c-0.8,0-1.4-0.6-1.4-1.4V7.9c0-0.8,0.6-1.4,1.4-1.4h5.7c0.8,0,1.4,0.6,1.4,1.4V17z"/>
</svg>
